Motion_pu02
version=1
nRows=5
nColumns=43
inDegrees=yes
endheader
time	pelvis_tilt	pelvis_list	pelvis_rotation	pelvis_tx	pelvis_ty	pelvis_tz	hip_flexion_r	hip_adduction_r	hip_rotation_r	knee_angle_r	ankle_angle_r	subtalar_angle_r	mtp_angle_r	hip_flexion_l	hip_adduction_l	hip_rotation_l	knee_angle_l	ankle_angle_l	subtalar_angle_l	mtp_angle_l	lumbar_extension	lumbar_bending	lumbar_rotation	neck_flexion	neck_lateral_bending	neck_rotation	arm_flex_r	arm_add_r	arm_rot_r	elbow_flex_r	pro_sup_r	wrist_flex_r	wrist_dev_r	hand_finger_flex_r	arm_flex_l	arm_add_l	arm_rot_l	elbow_flex_l	pro_sup_l	wrist_flex_l	wrist_dev_l	hand_finger_flex_l
      0.00250000	      0.16230321	     17.65068135	    -88.83547759	      0.00129860	      0.91783376	      0.94876370	     17.26995106	     -5.68912374	     -5.88049433	     -8.81487087	     13.24849104	     -3.20662830	    -11.40697934	     10.32497568	     -0.80269720	     -9.52025582	      1.78361343	     12.86756404	     -1.63948517	    -13.29112518	     24.21832204	     -0.78880211	    -11.02308060	     16.41628824	      6.14159561	      8.80653936	    -63.80423904	   -146.22116155	   -156.15293932	     75.95428890	    140.78384721	      0.59161108	     -9.32910900	    -10.83475971	    162.12517428	    -51.64602095	     84.74056294	     76.63993669	    118.14206473	    -27.74298929	      1.92198304	     49.81337981
      0.00500000	      0.16888179	     17.65530006	    -88.83815127	      0.00104634	      0.91797824	      0.94927425	     17.25055748	     -5.66654799	     -5.88362016	     -8.82732228	     13.24984269	     -3.20588021	    -11.40709483	     10.30546044	     -0.81914471	     -9.51836211	      1.77102583	     12.87065229	     -1.63886957	    -13.29137020	     24.25375728	     -0.83363815	    -11.02702939	     16.41620128	      6.14285432	      8.80715335	    -63.74763915	   -146.23710522	   -156.15293077	     75.93788541	    140.78419968	      0.59474347	     -9.33200521	    -10.83310380	    162.12902399	    -51.63181228	     84.74085931	     76.63498740	    118.14493483	    -27.74852689	      1.92163801	     49.81384683
      0.00750000	      0.17836990	     17.60922739	    -88.78787581	      0.00136939	      0.91777728	      0.94973326	     17.20293368	     -5.71899555	     -5.98123079	     -8.91918887	     13.35433499	     -3.22290791	    -11.40547994	     10.27787730	     -0.78632921	     -9.41321249	      1.65860206	     12.99318420	     -1.59425184	    -13.29533783	     24.21486811	     -0.80661958	    -11.03301404	     16.40065005	      6.19869638	      8.81875051	    -63.18650737	   -146.33620971	   -155.59754119	     75.37917477	    140.80829965	      0.77482843	     -9.46484104	    -10.76048783	    162.20337295	    -51.48017770	     84.90539817	     76.21682232	    118.22085022	    -27.84186601	      1.93502016	     49.85756850
      0.01000000	      0.18389246	     17.61643122	    -88.79066803	      0.00115507	      0.91792056	      0.95026192	     17.18267266	     -5.69621708	     -5.98371558	     -8.93381493	     13.35625711	     -3.22154672	    -11.40554524	     10.25689196	     -0.80301499	     -9.41277815	      1.64684982	     12.99724763	     -1.59479158	    -13.29554033	     24.25251070	     -0.84862080	    -11.03344575	     16.40168786	      6.19565763	      8.82013923	    -63.12983193	   -146.34304820	   -155.59601849	     75.35952752	    140.80758528	      0.77922493	     -9.46738722	    -10.75854279	    162.21351572	    -51.46424157	     84.90647873	     76.21964538	    118.22255599	    -27.84624141	      1.93196426	     49.85950995
      0.01250000	      0.18282689	     17.57796527	    -88.77448241	      0.00143410	      0.91770453	      0.95076035	     17.16178963	     -5.73191748	     -6.05419196	     -9.05401887	     13.47081229	     -3.22144448	    -11.40283248	     10.22487636	     -0.78322034	     -9.35018243	      1.55382642	     13.13262776	     -1.57933511	    -13.29920981	     24.21479334	     -0.79275092	    -10.99307974	     16.41884749	      6.17953861	      8.83997066	    -62.53384984	   -146.39406210	   -154.99358507	     74.82866458	    140.78460530	      0.99095081	     -9.60161725	    -10.68026940	    162.34134443	    -51.32552497	     85.13636843	     75.86011792	    118.26515471	    -27.88393480	      1.89972992	     49.94445525
